<svg width="460" height="144" fill="none" xmlns="http://www.w3.org/2000/svg"><path d="M0 21c0-5.523 4.477-10 10-10h80c5.523 0 10 4.477 10 10v80c0 5.523-4.477 10-10 10H10c-5.523 0-10-4.477-10-10V21z" fill="#000"/><path d="M54.272 96.152c-4.224 0-8.16-.704-11.808-2.112a26.603 26.603 0 01-9.408-6.24c-2.624-2.752-4.672-6.144-6.144-10.176-1.472-4.032-2.208-8.64-2.208-13.824 0-5.12.768-9.696 2.304-13.728 1.536-4.096 3.616-7.552 6.24-10.368a27.107 27.107 0 019.408-6.432c3.648-1.472 7.552-2.208 11.712-2.208 4.48 0 8.256.832 11.328 2.496 3.136 1.6 5.696 3.424 7.68 5.472l-5.952 7.2a22.859 22.859 0 00-5.376-3.84c-1.92-1.088-4.352-1.632-7.296-1.632-2.816 0-5.376.544-7.68 1.632-2.24 1.024-4.192 2.528-5.856 4.512-1.6 1.92-2.848 4.288-3.744 7.104-.896 2.816-1.344 5.984-1.344 9.504 0 7.168 1.6 12.8 4.8 16.896 3.264 4.032 8.064 6.048 14.4 6.048 1.792 0 3.488-.224 5.088-.672 1.6-.512 2.912-1.216 3.936-2.112V70.136H52.448v-9.12h21.888v27.648c-2.112 2.112-4.928 3.904-8.448 5.376-3.456 1.408-7.328 2.112-11.616 2.112z" fill="#fff"/><path d="M120 21c0-5.523 4.477-10 10-10h80c5.523 0 10 4.477 10 10v80c0 5.523-4.477 10-10 10h-80c-5.523 0-10-4.477-10-10V21z" fill="#000"/><path d="M164.64 95V41.624h-18.144v-9.408h47.424v9.408h-18.144V95H164.64z" fill="#fff"/><path d="M240 21c0-5.523 4.477-10 10-10h80c5.523 0 10 4.477 10 10v80c0 5.523-4.477 10-10 10h-80c-5.523 0-10-4.477-10-10V21z" fill="#000"/><path d="M283.832 61.592l-2.208 7.68h16.032l-2.208-7.68a331.77 331.77 0 01-2.976-10.272c-.896-3.52-1.792-7.008-2.688-10.464h-.384l-2.688 10.56a235.952 235.952 0 01-2.88 10.176zM262.808 95l20.448-62.784h13.056L316.76 95h-11.712l-4.896-16.992h-21.12L274.136 95h-11.328z" fill="#fff"/><path d="M360 21c0-5.523 4.477-10 10-10h80c5.523 0 10 4.477 10 10v80c0 5.523-4.477 10-10 10h-80c-5.523 0-10-4.477-10-10V21z" fill="#000"/><path d="M414.272 96.152c-4.224 0-8.16-.704-11.808-2.112a26.603 26.603 0 01-9.408-6.24c-2.624-2.752-4.672-6.144-6.144-10.176-1.472-4.032-2.208-8.64-2.208-13.824 0-5.12.768-9.696 2.304-13.728 1.536-4.096 3.616-7.552 6.24-10.368a27.107 27.107 0 019.408-6.432c3.648-1.472 7.552-2.208 11.712-2.208 4.48 0 8.256.832 11.328 2.496 3.136 1.6 5.696 3.424 7.68 5.472l-5.952 7.2a22.859 22.859 0 00-5.376-3.84c-1.92-1.088-4.352-1.632-7.296-1.632-2.816 0-5.376.544-7.68 1.632-2.24 1.024-4.192 2.528-5.856 4.512-1.6 1.92-2.848 4.288-3.744 7.104-.896 2.816-1.344 5.984-1.344 9.504 0 7.168 1.6 12.8 4.8 16.896 3.264 4.032 8.064 6.048 14.4 6.048 1.792 0 3.488-.224 5.088-.672 1.6-.512 2.912-1.216 3.936-2.112V70.136h-11.904v-9.12h21.888v27.648c-2.112 2.112-4.928 3.904-8.448 5.376-3.456 1.408-7.328 2.112-11.616 2.112z" fill="#fff"/><path d="M191.296 139v-11.7h3.456c.888 0 1.698.108 2.43.324.744.216 1.38.558 1.908 1.026.528.468.936 1.068 1.224 1.8.3.732.45 1.614.45 2.646 0 1.032-.144 1.92-.432 2.664-.288.744-.696 1.356-1.224 1.836a4.813 4.813 0 01-1.854 1.062 7.54 7.54 0 01-2.322.342h-3.636zm3.096-2.484h.18c.42 0 .816-.048 1.188-.144.372-.108.69-.288.954-.54.276-.252.492-.6.648-1.044.156-.444.234-1.008.234-1.692 0-.684-.078-1.242-.234-1.674-.156-.432-.372-.768-.648-1.008a2.067 2.067 0 00-.954-.486 4.74 4.74 0 00-1.188-.144h-.18v6.732zm8.453 2.484v-11.7h7.56v2.592h-4.464v1.836h3.816v2.592h-3.816v2.088h4.644V139h-7.74zm10.002 0v-11.7h4.212c.612 0 1.188.048 1.728.144.54.084 1.008.234 1.404.45.396.216.708.516.936.9.24.372.36.846.36 1.422 0 .252-.036.51-.108.774a3.556 3.556 0 01-.306.738 2.52 2.52 0 01-.45.612 1.68 1.68 0 01-.612.396v.072a2.96 2.96 0 011.422.918c.396.432.594 1.038.594 1.818 0 .6-.126 1.122-.378 1.566-.24.432-.57.792-.99 1.08-.408.276-.894.48-1.458.612a7.798 7.798 0 01-1.782.198h-4.572zm3.096-7.128h1.044c.504 0 .876-.108 1.116-.324.24-.216.36-.504.36-.864s-.12-.618-.36-.774c-.24-.156-.612-.234-1.116-.234h-1.044v2.196zm0 4.752h1.26c1.2 0 1.8-.432 1.8-1.296 0-.432-.15-.738-.45-.918-.288-.18-.738-.27-1.35-.27h-1.26v2.484zm12.713 2.592c-1.644 0-2.868-.474-3.672-1.422-.792-.96-1.188-2.442-1.188-4.446V127.3h3.096v6.408c0 1.044.138 1.782.414 2.214.288.42.738.63 1.35.63.612 0 1.062-.21 1.35-.63.3-.432.45-1.17.45-2.214V127.3h2.988v6.048c0 2.004-.39 3.486-1.17 4.446-.78.948-1.986 1.422-3.618 1.422zm12.706 0a7.24 7.24 0 01-2.304-.36 5.44 5.44 0 01-1.89-1.116c-.528-.504-.948-1.128-1.26-1.872-.3-.756-.45-1.632-.45-2.628 0-.984.156-1.854.468-2.61.312-.768.732-1.41 1.26-1.926a5.515 5.515 0 011.872-1.206 6.09 6.09 0 012.232-.414c.864 0 1.608.156 2.232.468.636.3 1.164.66 1.584 1.08l-1.62 1.98a4.082 4.082 0 00-.918-.612c-.312-.168-.702-.252-1.17-.252a2.575 2.575 0 00-1.98.9c-.252.288-.45.642-.594 1.062-.132.42-.198.894-.198 1.422 0 1.104.246 1.95.738 2.538.492.588 1.266.882 2.322.882.168 0 .33-.018.486-.054.168-.036.306-.09.414-.162v-1.62h-1.728v-2.52h4.464v5.58c-.42.396-.978.738-1.674 1.026a6.148 6.148 0 01-2.286.414zm11.637 0a7.24 7.24 0 01-2.304-.36 5.44 5.44 0 01-1.89-1.116c-.528-.504-.948-1.128-1.26-1.872-.3-.756-.45-1.632-.45-2.628 0-.984.156-1.854.468-2.61.312-.768.732-1.41 1.26-1.926a5.515 5.515 0 011.872-1.206 6.09 6.09 0 012.232-.414c.864 0 1.608.156 2.232.468.636.3 1.164.66 1.584 1.08l-1.62 1.98a4.082 4.082 0 00-.918-.612c-.312-.168-.702-.252-1.17-.252a2.575 2.575 0 00-1.98.9c-.252.288-.45.642-.594 1.062-.132.42-.198.894-.198 1.422 0 1.104.246 1.95.738 2.538.492.588 1.266.882 2.322.882.168 0 .33-.018.486-.054.168-.036.306-.09.414-.162v-1.62h-1.728v-2.52h4.464v5.58c-.42.396-.978.738-1.674 1.026a6.148 6.148 0 01-2.286.414zm6.236-.216v-11.7h7.56v2.592h-4.464v1.836h3.816v2.592h-3.816v2.088h4.644V139h-7.74zm10.002 0v-11.7h4.428c.624 0 1.218.06 1.782.18.576.12 1.074.324 1.494.612.432.288.774.678 1.026 1.17.252.48.378 1.086.378 1.818 0 .84-.174 1.536-.522 2.088a3.552 3.552 0 01-1.368 1.296l2.538 4.536h-3.456l-2.016-3.924h-1.188V139h-3.096zm3.096-6.372h1.116c1.248 0 1.872-.516 1.872-1.548 0-.504-.162-.852-.486-1.044-.312-.192-.774-.288-1.386-.288h-1.116v2.88z" fill="#000"/></svg>